<?xml version="1.0" encoding="UTF-8"?>
<svg version="1.1" xmlns="http://www.w3.org/2000/svg" width="2710" height="754">
<path d="M0 0 C2.38537889 -0.00760245 4.77075654 -0.01560433 7.15613288 -0.02396995 C13.00988761 -0.04330941 18.86364345 -0.05802159 24.71741556 -0.07062838 C29.58554024 -0.08125626 34.45365458 -0.09416516 39.32176971 -0.10849571 C40.02609975 -0.11056594 40.73042979 -0.11263617 41.45610316 -0.11476914 C42.89279578 -0.11899474 44.3294884 -0.12322083 45.76618103 -0.12744739 C97.32358581 -0.27770876 148.8812983 -0.35095635 200.43887887 -0.40976031 C208.20613502 -0.41864184 215.97339076 -0.42786316 223.74064636 -0.43721008 C225.02796779 -0.43874714 225.02796779 -0.43874714 226.34129571 -0.44031525 C254.19783063 -0.47382096 282.05413939 -0.54238057 309.91055272 -0.62995951 C338.56080449 -0.71987028 367.21093372 -0.77730581 395.86132742 -0.79269613 C399.90521914 -0.79487732 403.94911057 -0.79741616 407.99300194 -0.80016518 C408.7888498 -0.80069291 409.58469766 -0.80122064 410.40466213 -0.80176436 C423.21959327 -0.81119031 436.03419329 -0.85468837 448.84899585 -0.91073577 C461.71891761 -0.96625858 474.58848442 -0.9853075 487.45851658 -0.96698119 C495.10719694 -0.95718691 502.75462873 -0.97534335 510.4031022 -1.03329286 C516.10873241 -1.07345788 521.81329679 -1.06159669 527.51893278 -1.02923045 C529.83095994 -1.02429427 532.14309696 -1.03640604 534.45492742 -1.06696483 C551.75851298 -1.28212428 551.75851298 -1.28212428 556.53894937 2.33863294 C558.3803643 4.91299303 559.53838115 7.25543404 560.69889832 10.18754578 C561.64434696 11.68679065 562.61682759 13.16972669 563.62858582 14.62504578 C564.61202517 16.1448007 565.59372563 17.66568195 566.57389832 19.18754578 C567.70894403 20.94169211 568.844381 22.69558533 569.98014832 24.44926453 C570.57956238 25.3752948 571.17897644 26.30132507 571.79655457 27.25541687 C575.20774012 32.51316052 578.64178156 37.75595156 582.07389832 43.00004578 C587.4551065 51.2251774 592.83152594 59.45337856 598.19889832 67.68754578 C605.63559989 79.09522495 613.08766898 90.49282652 620.54167175 101.88920593 C624.80152082 108.40239753 629.06015583 114.91638299 633.3190155 121.43022156 C636.88534337 126.88475016 640.45197053 132.33908259 644.01921082 137.79301453 C651.36546391 149.02532903 658.70602744 160.26129783 666.0353241 171.50468445 C670.03185013 177.63441291 674.0329213 183.76114318 678.03947449 189.88432312 C679.46882753 192.07077271 680.89610545 194.25858041 682.32121277 196.44779968 C685.89490966 201.93266366 689.50184008 207.38919146 693.17936707 212.80473328 C693.88706238 213.85789734 694.59475769 214.9110614 695.32389832 215.99613953 C696.67155163 217.99975288 698.03175119 219.99499955 699.40592957 221.98051453 C700.00147644 222.87125671 700.59702332 223.7619989 701.21061707 224.67973328 C701.74130798 225.45687683 702.2719989 226.23402039 702.81877136 227.03471375 C703.69889832 229.18754578 703.69889832 229.18754578 703.02018738 231.30058289 C700.978495 234.2163701 698.39388877 236.50875372 695.76139832 238.87504578 C695.17729187 239.40758972 694.59318542 239.94013367 693.99137878 240.48881531 C690.5212378 243.62693954 686.97548692 246.63578378 683.32389832 249.56254578 C678.04276408 253.7966913 673.16172564 258.38493142 668.24845886 263.03251648 C663.83118238 267.18925955 659.26005042 271.05429372 654.51921082 274.83988953 C649.8048219 278.76419387 645.37984116 282.99781439 640.90592957 287.19145203 C636.24698512 291.55744871 631.42819028 295.7193041 626.56217957 299.85160828 C620.60557142 304.91960629 614.7239402 310.03215909 609.01139832 315.37504578 C605.19890287 318.9408369 601.33855274 322.35855364 597.26139832 325.62504578 C591.55312052 330.20668979 586.25593793 335.17557013 580.92155457 340.17973328 C577.87752819 343.03301356 574.76922954 345.79942587 571.60905457 348.52348328 C569.33685321 350.50294704 567.11429959 352.53337748 564.88639832 354.56254578 C561.48806279 357.63501351 558.02299309 360.571972 554.44889832 363.43754578 C548.68943406 368.0941339 543.31941133 373.11588754 537.92155457 378.17973328 C534.87752819 381.03301356 531.76922954 383.79942587 528.60905457 386.52348328 C526.33685321 388.50294704 524.11429959 390.53337748 521.88639832 392.56254578 C518.48806279 395.63501351 515.02299309 398.571972 511.44889832 401.43754578 C505.68943406 406.0941339 500.31941133 411.11588754 494.92155457 416.17973328 C491.87752819 419.03301356 488.76922954 421.79942587 485.60905457 424.52348328 C483.33685321 426.50294704 481.11429959 428.53337748 478.88639832 430.56254578 C475.48806279 433.63501351 472.02299309 436.571972 468.44889832 439.43754578 C463.26439151 443.62503204 458.39618134 448.09419931 453.55729675 452.67094421 C452.99816589 453.19849304 452.43903503 453.72604187 451.86296082 454.26957703 C451.37263367 454.73597595 450.88230652 455.20237488 450.37712097 455.6829071 C449.8233075 456.17943787 449.26949402 456.67596863 448.69889832 457.18754578 C448.04087919 457.86609291 447.38286007 458.54464004 446.70490098 459.2437492 C442.45001745 461.99512002 438.8956486 461.78822627 433.92463303 461.79292965 C432.94094361 461.80920154 431.9572542 461.82547343 430.94375601 461.8422384 C427.66250495 461.89107231 424.38175221 461.9110731 421.10020447 461.93045044 C418.75698947 461.95801929 416.41379022 461.98695638 414.0706079 462.01717514 C406.61348511 462.10494268 399.15641769 462.14957931 391.69889832 462.18754578 C390.51779279 462.19441734 389.33668727 462.2012889 388.11979067 462.20836869 C371.54375993 462.30439963 354.96810725 462.31835748 338.39184182 462.30516012 C331.33968403 462.29974501 324.28752936 462.30050385 317.23537001 462.30129324 C304.23414855 462.30258903 291.23293229 462.29933621 278.23171234 462.29327583 C265.40219853 462.28731114 252.57268688 462.28350041 239.74317169 462.28242302 C238.53617312 462.28231991 238.53617312 462.28231991 237.30479075 462.28221472 C233.21651042 462.28187628 229.12823008 462.28157493 225.03994974 462.28128784 C196.2571564 462.27920037 167.47436586 462.27249966 138.6915741 462.26298523 C110.77002477 462.2537663 82.84847621 462.24669972 54.92692566 462.24247742 C54.06273042 462.24234589 53.19853519 462.24221436 52.30815222 462.24207885 C43.62771029 462.24076007 34.94726837 462.23948429 26.26682643 462.23823999 C8.59165683 462.23570536 -9.08351272 462.23288411 -26.75868225 462.22988892 C-27.57094322 462.22975163 -28.38320418 462.22961434 -29.22007911 462.22947289 C-83.24708781 462.22030834 -137.27409492 462.20444647 -191.30110168 462.18754578 C-191.36585156 462.79831368 -191.43060143 463.40908158 -191.49731342 464.0383576 C-191.62785493 465.24592016 -191.62785493 465.24592016 -191.76103365 466.47787791 C-191.84640853 467.27427082 -191.9317834 468.07066372 -192.01974539 468.89118974 C-192.38739646 471.89186103 -193.00078949 474.795408 -193.68229675 477.73983765 C-193.96433393 478.96977101 -194.24637112 480.19970438 -194.53695488 481.46690845 C-194.8493603 482.80569336 -195.16185909 484.14445649 -195.47444153 485.48320007 C-195.80611161 486.92079244 -196.13732642 488.35848991 -196.4681263 489.79628277 C-197.37051902 493.71268326 -198.27918652 497.62760431 -199.18889809 501.54231024 C-200.1614588 505.73271679 -201.12799383 509.92451297 -202.09516907 514.11616516 C-203.75360006 521.30024114 -205.41550616 528.48350546 -207.07984924 535.66621399 C-209.678478 546.88135694 -212.2701187 558.09810794 -214.86018372 569.31523132 C-215.2945736 571.19639406 -215.72896526 573.07755638 -216.16335869 574.9587183 C-216.81601214 577.78507505 -217.46865815 580.61143352 -218.12127054 583.43779975 C-219.43172232 589.11297474 -220.74273172 594.78802058 -222.05418956 600.46296316 C-227.67008634 624.76430414 -233.26742225 649.06979348 -238.83235168 673.38285828 C-238.98305429 674.04123609 -239.1337569 674.6996139 -239.28902626 675.37794256 C-245.30138402 701.64590137 -251.29841913 727.91737887 -257.30110168 754.18754578 C-316.70110168 754.18754578 -376.10110168 754.18754578 -437.30110168 754.18754578 C-436.62589072 748.11064709 -435.82791034 742.46981823 -434.4412384 736.57304382 C-434.25318382 735.75473587 -434.06512924 734.93642792 -433.87137604 734.09332275 C-433.24599208 731.37750068 -432.61338818 728.66341426 -431.98078918 725.94926453 C-431.52961899 723.99639234 -431.07891705 722.04341192 -430.62864685 720.09033203 C-429.65970231 715.89182348 -428.68758563 711.69406693 -427.71296692 707.49687195 C-426.1520184 700.77448253 -424.59808856 694.05048261 -423.04524231 687.32621765 C-421.1498007 679.12037071 -419.25276523 670.91489561 -417.35363388 662.70990181 C-414.0462353 648.41987202 -410.75118285 634.12703748 -407.46516418 619.83207703 C-407.23060076 618.81169342 -406.99603733 617.79130981 -406.75436592 616.74000549 C-405.5751384 611.6098726 -404.39615004 606.47968478 -403.2172699 601.34947205 C-401.06642082 591.99002334 -398.91339455 582.63107537 -396.76057625 573.27207947 C-395.5612689 568.05821217 -394.36209607 562.84431393 -393.16291809 557.63041687 C-392.80772079 556.08607027 -392.80772079 556.08607027 -392.44534779 554.51052475 C-389.61351255 542.19808225 -386.78185254 529.88559945 -383.95018578 517.57311821 C-381.35109918 506.27194785 -378.75190767 494.97080164 -376.15242004 483.66972351 C-375.91667676 482.64484361 -375.68093348 481.6199637 -375.43804646 480.56402683 C-374.4763347 476.38304661 -373.5146227 472.20206645 -372.5528965 468.02108955 C-369.70762524 455.65158209 -366.86283276 443.28196471 -364.01887512 430.91215515 C-357.93116251 404.43391355 -351.8411224 377.95621208 -345.7431488 351.48033142 C-343.19349938 340.4099497 -340.64589915 329.33910551 -338.10361576 318.26702976 C-336.61161181 311.77003855 -335.1163428 305.27380536 -333.61806393 298.77825832 C-332.80224807 295.24100996 -331.98781316 291.70346274 -331.17784119 288.16487122 C-320.98601624 243.65433096 -320.98601624 243.65433096 -314.05110168 224.18754578 C-313.68033508 223.13470398 -313.30956848 222.08186218 -312.92756653 220.99711609 C-297.52621999 178.04652339 -275.75776007 137.23088068 -244.56672668 103.63676453 C-242.59352652 101.50366711 -240.68815465 99.33395591 -238.80110168 97.12504578 C-232.22191083 89.57058663 -225.0058641 82.58467796 -217.30110168 76.18754578 C-216.8110968 75.77842957 -216.32109192 75.36931335 -215.8162384 74.94779968 C-164.03614861 31.93357006 -101.90621116 8.40353003 -35.30110168 1.18754578 C-34.53473257 1.09890312 -33.76836345 1.01026046 -32.97877103 0.91893166 C-22.01718961 -0.17982693 -11.00357927 0.01898873 0 0 Z M415.69889832 2.18754578 C411.88186192 15.86013181 408.68510989 29.6819942 405.43303919 43.49722886 C404.6232513 46.93534663 403.81104761 50.37289376 402.99916077 53.81051636 C401.63444263 59.59039323 400.27133098 65.37064696 398.90934753 71.15116882 C397.1812281 78.48561293 395.4505391 85.81944804 393.71898079 93.15308094 C392.20816151 99.55189102 390.69848721 105.95097116 389.18901587 112.35009933 C388.71507011 114.35914219 388.24099035 116.36815339 387.76689529 118.37716103 C383.69518445 135.63611064 379.66824574 152.90475568 375.69889832 170.18754578 C359.88163693 171.22788677 344.06633432 171.44948421 328.22023559 171.62712431 C324.41432647 171.67065722 320.60847389 171.71871258 316.8026123 171.76618958 C310.21693165 171.84775399 303.63122288 171.92657055 297.04548645 172.00349426 C287.45974869 172.11549051 277.87407101 172.23209522 268.28840172 172.34978998 C252.64580853 172.54175668 237.00317846 172.73051917 221.36051941 172.91703796 C206.32437393 173.09633565 191.28823815 173.2763969 176.25212097 173.45805359 C175.33164593 173.46917344 174.41117088 173.4802933 173.46280265 173.49175012 C163.33372219 173.61415181 153.20464652 173.73694397 143.07557678 173.86022949 C142.17509176 173.87118922 141.27460675 173.88214894 140.3468343 173.89344078 C136.73772357 173.93737341 133.12861292 173.98131233 129.51950288 174.02530158 C119.94772396 174.14196031 110.37593835 174.25796905 100.80412292 174.37159729 C97.48193851 174.41106263 94.15975423 174.45053891 90.83757019 174.49003601 C89.6205182 174.50450108 89.6205182 174.50450108 88.37887931 174.51925838 C75.91932614 174.66762022 63.45991529 174.82532223 51.00058198 174.99112141 C42.29843376 175.10690404 33.59632312 175.21228827 24.89382607 175.29820091 C18.75880408 175.35926313 12.62401511 175.4338623 6.4892025 175.51310539 C4.00264457 175.54282407 1.51602493 175.56785617 -0.97063255 175.58755684 C-32.92721554 175.84608005 -64.71313466 180.83484848 -89.30110168 203.18754578 C-90.55600403 204.26649109 -90.55600403 204.26649109 -91.83625793 205.36723328 C-104.01798431 215.98719986 -112.93595416 228.06828843 -120.02766418 242.51957703 C-120.36613373 243.20305206 -120.70460327 243.8865271 -121.05332947 244.5907135 C-122.13971408 246.78780963 -123.22083168 248.98743754 -124.30110168 251.18754578 C-124.66385193 251.92413422 -125.02660217 252.66072266 -125.40034485 253.41963196 C-127.6299775 257.94756481 -129.84842142 262.48081873 -132.05793762 267.01860046 C-132.81249461 268.56659555 -133.56871918 270.11377876 -134.32649231 271.66020203 C-135.44404793 273.9410055 -136.5567047 276.22413987 -137.66828918 278.50785828 C-138.00472443 279.19227997 -138.34115967 279.87670166 -138.68778992 280.5818634 C-139.0021701 281.23049347 -139.31655029 281.87912354 -139.64045715 282.54740906 C-139.91388947 283.10759735 -140.18732178 283.66778564 -140.46903992 284.24494934 C-141.57572972 286.82871385 -142.41224842 289.52098597 -143.30110168 292.18754578 C19.05889832 292.18754578 181.41889832 292.18754578 348.69889832 292.18754578 C345.72889832 304.39754578 342.75889832 316.60754578 339.69889832 329.18754578 C337.36726004 338.95162971 335.03888574 348.71622787 332.7284801 358.48532152 C332.2457227 360.52636789 331.76267126 362.56734448 331.27954292 364.60830307 C329.58590884 371.76331503 327.89364264 378.91864903 326.20256042 386.07426453 C324.63569431 392.70407042 323.06532116 399.33303968 321.49353641 405.96168101 C320.12794378 411.72152802 318.76490942 417.48197657 317.40385395 423.24289739 C316.59740379 426.6561105 315.78989234 430.06906383 314.97968864 433.48138809 C314.08607881 437.24536119 313.19777262 441.01057447 312.3099823 444.77592468 C312.04359955 445.89455399 311.7772168 447.01318329 311.50276184 448.16571045 C311.26334366 449.18496109 311.02392548 450.20421173 310.7772522 451.25434875 C310.46294077 452.58292876 310.46294077 452.58292876 310.14227962 453.93834877 C309.60219498 456.29602477 309.60219498 456.29602477 309.69889832 459.18754578 C312.7361679 457.8214431 314.90804858 456.2568077 317.30827332 453.95707703 C317.98116394 453.31834656 318.65405457 452.67961609 319.34733582 452.02153015 C320.38760925 451.02089539 320.38760925 451.02089539 321.44889832 450.00004578 C326.17010383 445.48976865 330.92976337 441.06119219 335.86393738 436.78398132 C338.34561779 434.62489295 340.77294273 432.40890269 343.19889832 430.18754578 C346.31796843 427.34230349 349.44645223 424.51554997 352.63639832 421.75004578 C356.58557199 418.31986002 360.42912136 414.7775106 364.27677917 411.23466492 C367.6635245 408.12155279 371.0979608 405.07502495 374.57389832 402.06254578 C377.31713325 399.64204436 380.00771074 397.165504 382.69889832 394.68754578 C386.65749555 391.04337637 390.65066663 387.44840798 394.71452332 383.92192078 C398.75264522 380.39253864 402.71804513 376.78120352 406.69889832 373.18754578 C408.36530683 371.68725899 410.03197184 370.18725705 411.69889832 368.68754578 C412.52389832 367.94504578 413.34889832 367.20254578 414.19889832 366.43754578 C441.69889832 341.68754578 441.69889832 341.68754578 444.19108582 339.44535828 C445.88482726 337.92046333 447.57751 336.39439176 449.26921082 334.86723328 C453.01454087 331.4884187 456.76408039 328.11858612 460.57389832 324.81254578 C464.54142555 321.35903016 468.40737472 317.79750638 472.27653503 314.23490906 C475.66334392 311.12169534 479.09787376 308.07510039 482.57389832 305.06254578 C485.31713325 302.64204436 488.00771074 300.165504 490.69889832 297.68754578 C494.65749555 294.04337637 498.65066663 290.44840798 502.71452332 286.92192078 C506.75264522 283.39253864 510.71804513 279.78120352 514.69889832 276.18754578 C516.36530683 274.68725899 518.03197184 273.18725705 519.69889832 271.68754578 C520.52389832 270.94504578 521.34889832 270.20254578 522.19889832 269.43754578 C539.69889832 253.68754578 539.69889832 253.68754578 542.19108582 251.44535828 C543.88482726 249.92046333 545.57751 248.39439176 547.26921082 246.86723328 C551.84726454 242.73718481 556.4460482 238.63622528 561.10514832 234.59770203 C562.34192821 233.50339432 563.53117963 232.35526446 564.69889832 231.18754578 C564.32420006 228.04832542 563.00891781 225.83478576 561.28483582 223.23051453 C560.77920105 222.46013855 560.27356628 221.68976257 559.75260925 220.89604187 C559.19863464 220.06411316 558.64466003 219.23218445 558.07389832 218.37504578 C556.87850205 216.55869465 555.68319287 214.74228621 554.48796082 212.92582703 C553.86308777 211.98046082 553.23821472 211.0350946 552.59440613 210.06108093 C549.52526349 205.40834924 546.48939846 200.73402128 543.44889832 196.06254578 C535.92832884 184.53022618 528.39235149 173.00797655 520.85612488 161.48588562 C517.3031457 156.05347857 513.75106331 150.62048522 510.19889832 145.18754578 C508.78223604 143.02087624 507.36556937 140.85420958 505.94889832 138.68754578 C503.11556498 134.35421244 500.28223165 130.02087911 497.44889832 125.68754578 C496.39678162 124.07843323 496.39678162 124.07843323 495.32341003 122.43681335 C493.90835343 120.27259957 492.49331433 118.10837433 491.07829285 115.94413757 C487.51213662 110.48984731 483.9456655 105.03576341 480.37858582 99.58207703 C473.03088721 88.34755235 465.68908919 77.10923645 458.358078 65.86381531 C452.98155377 57.61782962 447.59818968 49.37632387 442.20622253 41.14042664 C438.84297556 36.00236796 435.48433541 30.86159379 432.14338684 25.70901489 C430.5817568 23.30113785 429.0174703 20.89499219 427.45298767 18.4889679 C426.7065811 17.33941946 425.96148086 16.18902164 425.21775818 15.03773499 C424.18614178 13.44099335 423.14965634 11.84740068 422.11296082 10.25395203 C421.52466492 9.34588806 420.93636902 8.4378241 420.33024597 7.50224304 C418.90595503 5.48133577 417.46380887 3.89853932 415.69889832 2.18754578 Z " fill="#FFFFFF" transform="translate(2006.3011016845703,-0.1875457763671875)"/>
<path d="M0 0 C59.4 0 118.8 0 180 0 C175.40486022 21.82691396 175.40486022 21.82691396 173.11962891 31.68139648 C172.72622661 33.38808707 172.72622661 33.38808707 172.32487679 35.12925625 C171.46052939 38.87694351 170.59357277 42.62402172 169.7265625 46.37109375 C169.09692632 49.09742443 168.46782604 51.82387872 167.83868408 54.55032349 C166.30690194 61.18684613 164.77308137 67.82289606 163.23854542 74.45878243 C161.97225701 79.93490148 160.70683893 85.41122105 159.44195557 90.88766479 C144.44127029 155.83387176 129.39043451 220.7684691 114.33984375 285.703125 C111.41950981 298.30269623 108.49919124 310.90227103 105.57898998 323.50187302 C105.19271364 325.16851213 104.80643549 326.83515082 104.42015553 328.50178909 C99.78086349 348.51844222 95.14251395 368.53531284 90.50788498 388.55304623 C88.66076298 396.53094242 86.81276739 404.50863499 84.96343976 412.48602021 C83.57202656 418.48854556 82.18226187 424.49145149 80.79310417 430.49449921 C80.23377273 432.91045119 79.67393052 435.32628499 79.11349678 437.74198151 C77.62877105 444.14249425 76.15371028 450.54505218 74.69578171 456.95172501 C74.22391584 459.0190069 73.74863816 461.08551244 73.27028275 463.15130234 C72.55869778 466.22987152 71.8600999 469.31113885 71.16430664 472.39331055 C70.9532878 473.29495595 70.74226896 474.19660135 70.52485561 475.12556934 C65.49032226 497.74155499 70.14926649 518.45215662 82.19775391 537.93701172 C97.17806118 561.14904251 121.7203567 573.21957297 147.87890625 579.71484375 C160.15312172 582.34640481 172.50237276 582.15446389 184.98754883 582.16113281 C187.01403899 582.16576757 189.04052829 582.1707931 191.0670166 582.17617798 C196.55319637 582.18924424 202.03936392 582.1957361 207.5255568 582.20018864 C210.96274047 582.20312989 214.39992088 582.20723672 217.83710289 582.21169281 C228.61888099 582.22535512 239.40065156 582.23502688 250.18243772 582.2388947 C262.57613655 582.24336664 274.96972461 582.2608797 287.36338979 582.2898953 C296.9765812 582.31161003 306.58974169 582.32160425 316.20295733 582.32293582 C321.92847287 582.32397724 327.65388411 582.3297419 333.37937355 582.34775543 C338.77622732 582.36440542 344.17290029 582.36631077 349.56977081 582.35761642 C351.533121 582.3568549 353.4964816 582.36106937 355.45980644 582.37107468 C402.66008501 582.59719413 447.97320107 566.23547803 482 533 C482.825 532.236875 483.65 531.47375 484.5 530.6875 C499.1390194 516.79919955 511.15255345 499.6316769 516.84790039 480.17138672 C517.10040338 479.31691893 517.35290636 478.46245113 517.61306095 477.58209038 C521.04565192 465.69645634 523.73427668 453.62507038 526.49609375 441.5703125 C527.11808196 438.87450268 527.74207618 436.17915818 528.36599731 433.48379517 C529.69945662 427.71863311 531.02826323 421.9524156 532.35379028 416.1854248 C534.29387131 407.74489262 536.24156119 399.30612951 538.19109762 390.86777687 C541.15326569 378.04595453 544.11142079 365.22321152 547.06632578 352.39971352 C551.33838813 333.86039147 555.62291344 315.32397512 559.9140625 296.7890625 C560.23513924 295.40214153 560.5562134 294.01521997 560.877285 292.62829781 C562.15410049 287.11291172 563.4309372 281.59753055 564.70786095 276.08216953 C567.89382269 262.32078109 571.07638014 248.55860583 574.2586937 234.79637337 C579.42609154 212.44944729 584.59563022 190.10301798 589.76794821 167.75723016 C590.99137881 162.4716681 592.21470991 157.18608301 593.43797302 151.90048218 C593.60987127 151.15772856 593.78176951 150.41497494 593.95887679 149.64971364 C594.64900371 146.66774134 595.33912735 143.68576829 596.02924049 140.70379281 C597.84268258 132.86792769 599.65627422 125.03209728 601.4704895 117.19641113 C602.99737947 110.6016631 604.52377865 104.00680166 606.04977226 97.41184616 C606.64014494 94.86051346 607.23062425 92.30920543 607.82121468 89.75792313 C611.05658178 75.77965358 614.27914247 61.79858493 617.47559035 47.81137025 C617.97122462 45.64280071 618.46715855 43.47429991 618.96319103 41.30582142 C619.28788058 39.88626053 619.61256382 38.4666982 619.9372406 37.0471344 C620.17568311 36.00463507 620.17568311 36.00463507 620.41894263 34.94107515 C621.35598364 30.84290231 622.29053353 26.74417099 623.22322702 22.64500666 C623.92937816 19.54423269 624.63869406 16.44418225 625.34741211 13.34399414 C625.60259802 12.21845438 625.85778393 11.09291462 626.12070274 9.93326759 C626.35491243 8.91111341 626.58912212 7.88895924 626.83042908 6.83583069 C627.0333705 5.94493775 627.23631193 5.05404482 627.4454031 4.13615513 C628 2 628 2 629 0 C688.4 0 747.8 0 809 0 C804.40590657 22.97046717 804.40590657 22.97046717 802.6159668 30.52172852 C802.40797266 31.41147873 802.19997852 32.30122894 801.98568153 33.21794128 C801.30987688 36.10564638 800.62956872 38.99226902 799.94921875 41.87890625 C799.45755492 43.97616032 798.96620565 46.07348816 798.47514343 48.17088318 C797.42871676 52.63786222 796.38039108 57.10438933 795.33050537 61.57055664 C793.65454426 68.70052607 791.98325579 75.83158553 790.31298828 82.96289062 C790.03018635 84.17030096 789.74738441 85.3777113 789.45601273 86.62170982 C788.88100303 89.07674529 788.30600996 91.53178464 787.73103333 93.98682785 C786.85959176 97.70715728 785.98775609 101.42739418 785.11584473 105.14761353 C779.7426529 128.07721999 774.4060389 151.01524995 769.08149719 173.95619583 C768.13111503 178.05073043 767.18042204 182.14519283 766.22973824 186.2396574 C764.09008067 195.4549226 761.95091245 204.6703013 759.81201172 213.88574219 C752.03852461 247.37716072 744.2557659 280.86642813 736.47346973 314.35580063 C735.04030576 320.52311301 733.60720054 326.69043904 732.17419434 332.85778809 C728.54513969 348.47637172 724.91553948 364.09482836 721.28484058 379.71302986 C719.65975322 386.70372767 718.03487315 393.69447348 716.41061401 400.68536377 C713.12929666 414.80778873 709.84493546 428.92949737 706.55236053 443.04930305 C705.13084454 449.14552276 703.71094251 455.24210797 702.29489136 461.33959961 C700.93087778 467.21259424 699.56230771 473.08450951 698.19043541 478.95567322 C697.68873448 481.10614412 697.18858362 483.2569774 696.69019508 485.40821838 C679.27305668 560.55658711 643.10906894 636.44426289 580 684 C578.54249274 685.13480556 577.08551247 686.27028812 575.62890625 687.40625 C520.08926871 730.31921146 450.44864178 754.19036084 380.16622925 754.14044189 C378.82131686 754.14303335 377.47640524 754.14604865 376.13149464 754.1494453 C372.4732726 754.15742742 368.81507028 754.1592999 365.15684056 754.16004276 C361.19604685 754.1619089 357.235263 754.16946401 353.2744751 754.17617798 C344.62908104 754.18970059 335.98369165 754.19577691 327.33828878 754.20018864 C321.92627077 754.20296218 316.51425452 754.20720157 311.1022377 754.21169281 C296.07934367 754.22387907 281.05645103 754.23417866 266.03355217 754.2375679 C264.59411056 754.23789725 264.59411056 754.23789725 263.12558932 754.23823325 C262.16382908 754.23845153 261.20206884 754.23866981 260.21116436 754.2388947 C258.26268379 754.23933815 256.31420322 754.23978471 254.36572266 754.24023438 C253.39923491 754.2404558 252.43274717 754.24067723 251.43697192 754.24090537 C235.807023 754.24484605 220.17712092 754.26228063 204.54719006 754.2855939 C188.44961963 754.30940815 172.3520726 754.32177436 156.2544843 754.32293582 C147.23683882 754.32384711 138.21925433 754.3294599 129.20162582 754.34775543 C121.51678623 754.36329334 113.83202646 754.36819753 106.14717411 754.36001733 C102.23896442 754.35615815 98.33091479 754.35680258 94.42272568 754.37107468 C31.46051995 754.58728727 -31.16865648 741.47661898 -77.6640625 696.3671875 C-100.51139704 673.62247995 -113.79855256 643.24015543 -120 612 C-120.16516113 611.21931152 -120.33032227 610.43862305 -120.50048828 609.63427734 C-127.87300662 573.56459353 -123.4889052 533.79552348 -116.06640625 498.09765625 C-115.92080261 497.39283552 -115.77519897 496.68801479 -115.62518311 495.96183586 C-111.25538595 474.88247939 -106.24486707 453.94523088 -101.30773163 432.99334717 C-99.92360907 427.11427446 -98.54514067 421.23387674 -97.16650391 415.35351562 C-96.6003766 412.93899436 -96.03424499 410.5244741 -95.46810913 408.10995483 C-95.18634197 406.90819988 -94.90457481 405.70644493 -94.61426926 404.46827316 C-93.75612197 400.80919795 -92.89738234 397.1502622 -92.03848267 393.49136353 C-86.68576383 370.68551294 -81.37808401 347.86930583 -76.08283615 325.05005264 C-74.89294688 319.92284219 -73.70241635 314.79578065 -72.51196289 309.66870117 C-70.61164138 301.4839651 -68.71171384 293.29913767 -66.81201172 285.11425781 C-62.42270686 266.20329885 -58.02957444 247.2932289 -53.63635635 228.38317871 C-52.93978888 225.38485231 -52.24325183 222.38651884 -51.54672241 219.38818359 C-41.80897936 177.47073588 -32.06150948 135.55555053 -22.31302357 93.6406002 C-21.69176811 90.96942373 -21.07053857 88.29824123 -20.44932842 85.62705421 C-18.9576986 79.2132138 -17.46569256 72.79946124 -15.97288513 66.38589478 C-13.53268824 55.90067372 -11.09384038 45.41517296 -8.67089748 34.9259491 C-7.72582007 30.83474426 -6.77910842 26.74391833 -5.8323307 22.65310669 C-5.19328182 19.88821742 -4.55694911 17.12271238 -3.92070007 14.35717773 C-3.54273789 12.72376189 -3.1646394 11.09037758 -2.78637695 9.45703125 C-2.61790819 8.72072479 -2.44943943 7.98441833 -2.27586555 7.22579956 C-1.11385862 2.22771724 -1.11385862 2.22771724 0 0 Z " fill="#FFFFFF" transform="translate(855,0)"/>
<path d="M0 0 C243.21 0 486.42 0 737 0 C723.83701991 57.03958041 710.4376191 114.024495 697 171 C604.93 171 512.86 171 418 171 C417.67 173.97 417.34 176.94 417 180 C416.70208327 181.64281674 416.37425586 183.28096379 415.99653625 184.9072876 C415.79775124 185.77462178 415.59896622 186.64195597 415.39415741 187.53557301 C415.17683205 188.46001555 414.95950668 189.3844581 414.7355957 190.33691406 C414.50299797 191.34499209 414.27040024 192.35307013 414.03075409 193.39169598 C413.25058467 196.76747548 412.46313479 200.14151447 411.67578125 203.515625 C411.10944776 205.95997891 410.54359959 208.4044453 409.97819519 210.84901428 C408.74844919 216.16170761 407.51566876 221.47368247 406.28027344 226.7850647 C404.27117691 235.4233864 402.2697653 244.06347992 400.26953125 252.70385742 C399.56987999 255.72582067 398.87019407 258.74777589 398.17050171 261.76972961 C397.99473142 262.52890928 397.81896113 263.28808895 397.63786447 264.07027406 C396.36257698 269.57808736 395.08631981 275.08567549 393.8097229 280.59318542 C388.48434688 303.56977185 383.17892894 326.55090894 377.88671875 349.53515625 C377.69598069 350.36352415 377.50524264 351.19189204 377.30872464 352.045362 C375.16317499 361.3636278 373.01820358 370.68202665 370.87350464 380.00048828 C368.48024264 390.39892178 366.08604741 400.7971403 363.69165039 411.1953125 C363.28778794 412.94918248 362.88392562 414.70305249 362.48006344 416.45692253 C361.87236044 419.09601848 361.26465668 421.73511425 360.6569497 424.37420928 C359.23260166 430.55976777 357.80834646 436.74534763 356.38414001 442.93093872 C351.22679239 465.33018302 346.06855243 487.72922165 340.90947324 510.1280672 C339.46411598 516.40328497 338.01881199 522.67851501 336.5735321 528.95375061 C335.75369658 532.51335744 334.93385673 536.07296327 334.11401367 539.63256836 C333.91190698 540.51007866 333.70980029 541.38758895 333.50156915 542.29169047 C331.08862787 552.76816253 328.67535902 563.24455904 326.26161212 573.72084552 C324.12337888 583.0013399 321.98539513 592.28189173 319.84765625 601.5625 C319.56505144 602.78935615 319.56505144 602.78935615 319.27673745 604.04099727 C314.28363711 625.71777216 309.29969651 647.3966227 304.32906282 669.07856059 C303.21511473 673.93752102 302.10060558 678.79635244 300.98568726 683.65509033 C300.83327831 684.31929938 300.68086937 684.98350842 300.52384198 685.66784501 C299.77343175 688.93815631 299.02297708 692.20845739 298.2724781 695.47874832 C296.5765139 702.87026387 294.88381745 710.26251771 293.19370174 717.65537262 C292.18203971 722.07734864 291.16747489 726.49865466 290.15205574 730.91976929 C289.68831648 732.94182846 289.22585972 734.96418225 288.7647686 736.98684692 C288.14555375 739.70261356 287.52197338 742.41733975 286.8972168 745.13183594 C286.6273313 746.32320726 286.6273313 746.32320726 286.35199356 747.5386467 C285.11410282 752.88589718 285.11410282 752.88589718 284 754 C281.67232986 754.0976134 279.37437981 754.12997765 277.04624939 754.12025452 C276.31035554 754.12110894 275.57446169 754.12196337 274.81626803 754.12284368 C272.33183354 754.12450067 269.84746545 754.11897356 267.36303711 754.11352539 C265.58951316 754.11324354 263.81598909 754.11340121 262.04246521 754.1139679 C257.21208983 754.11425595 252.38173906 754.1083579 247.55136943 754.10139394 C242.50914683 754.09516176 237.46692373 754.09455671 232.42469788 754.09336853 C222.86949773 754.09025481 213.31430897 754.08204088 203.75911385 754.07201904 C192.88384567 754.06085916 182.00857695 754.05534777 171.13330448 754.05032361 C148.75553 754.0398583 126.37776564 754.02225807 104 754 C110.67812238 723.96743383 117.4317868 693.95379255 124.37109375 663.98046875 C124.52916236 663.29768325 124.68723098 662.61489775 124.85008955 661.91142178 C126.84883374 653.27901102 128.85084391 644.64735886 130.85358989 636.01587582 C134.21615656 621.52246137 137.57058357 607.02715898 140.92636442 592.5321722 C141.51315678 589.99769509 142.10002287 587.46323506 142.68690872 584.9287796 C151.5414458 546.68977355 160.35431864 508.44120086 169.1593647 470.19077301 C169.94668902 466.77056514 170.73406314 463.35036874 171.52143824 459.93017256 C174.8980443 445.26287383 178.27442011 430.59552212 181.65036011 415.92807007 C187.36733731 391.08974942 193.08726286 366.25210883 198.80869913 341.41481495 C199.8965717 336.69221933 200.98440223 331.96961404 202.07223511 327.24700928 C208.99271728 297.20326007 208.99271728 297.20326007 212.10461426 283.69537354 C213.84239807 276.15212042 215.57998026 268.60882088 217.31734139 261.0654704 C218.33966883 256.62671786 219.36214536 252.18799975 220.38493431 247.74935353 C226.27764809 222.17101939 232.13673788 196.5851438 238 171 C146.59 171 55.18 171 -39 171 C-37.87501168 160.87510511 -37.87501168 160.87510511 -37.01812744 157.27037048 C-36.825186 156.44702713 -36.63224457 155.62368378 -36.43345642 154.77539062 C-36.11883202 153.4691272 -36.11883202 153.4691272 -35.79785156 152.13647461 C-35.46319633 150.71861412 -35.46319633 150.71861412 -35.1217804 149.27210999 C-34.38304286 146.14765081 -33.63680166 143.0250339 -32.890625 139.90234375 C-32.3621886 137.67293504 -31.83426586 135.44340452 -31.30682373 133.21376038 C-29.90918558 127.31093726 -28.505387 121.40959705 -27.10003662 115.50860596 C-24.89346673 106.23854079 -22.69688663 96.96610221 -20.49901581 87.69397163 C-19.75393325 84.55396528 -19.00667783 81.41448471 -18.2588501 78.27513123 C-12.06547151 52.20775849 -6.05896736 26.10016708 0 0 Z " fill="#FFFFFF" transform="translate(39,0)"/>
</svg>
